<?xml version="1.0" standalone="no"?>
<!DOCTYPE svg PUBLIC "-//W3C//DTD SVG 20010904//EN"
 "http://www.w3.org/TR/2001/REC-SVG-20010904/DTD/svg10.dtd">
<svg version="1.0" xmlns="http://www.w3.org/2000/svg"
 width="238.000000pt" height="238.000000pt" viewBox="0 0 238.000000 238.000000"
 preserveAspectRatio="xMidYMid meet">
<metadata>
Created by potrace 1.11, written by Peter Selinger 2001-2013
</metadata>
<g transform="translate(0.000000,238.000000) scale(0.100000,-0.100000)"
fill="#000000" stroke="none">
<path d="M1073 2249 c-362 -35 -696 -289 -834 -635 -62 -155 -73 -213 -73
-404 0 -157 3 -185 26 -271 100 -369 376 -650 734 -746 87 -23 117 -26 254
-26 172 0 240 13 386 74 161 67 349 224 447 371 56 85 115 214 143 314 35 122
44 347 20 478 -101 534 -574 897 -1103 845z"/>
</g>
</svg>
