<?xml version="1.0" encoding="utf-8"?>
<svg width="33px" height="43px" viewbox="0 0 33 43" version="1.1" xmlns:xlink="http://www.w3.org/1999/xlink" xmlns="http://www.w3.org/2000/svg">
  <defs>
    <filter filterUnits="userSpaceOnUse" color-interpolation-filters="sRGB" id="filter_1">
      <feFlood flood-opacity="0" result="BackgroundImageFix" />
      <feColorMatrix in="SourceAlpha" type="matrix" values="0 0 0 0 0 0 0 0 0 0 0 0 0 0 0 0 0 0 127 0" />
      <feOffset dx="0" dy="2" />
      <feGaussianBlur stdDeviation="2" />
      <feColorMatrix type="matrix" values="0 0 0 0 0.39215687 0 0 0 0 0.39215687 0 0 0 0 0.39215687 0 0 0 0.49803922 0" />
      <feBlend mode="normal" in2="BackgroundImageFix" result="effect0_dropShadow" />
      <feColorMatrix in="SourceAlpha" type="matrix" values="0 0 0 0 0 0 0 0 0 0 0 0 0 0 0 0 0 0 127 0" />
      <feOffset dx="0" dy="2" />
      <feGaussianBlur stdDeviation="2" />
      <feColorMatrix type="matrix" values="0 0 0 0 0.39215687 0 0 0 0 0.39215687 0 0 0 0 0.39215687 0 0 0 0.49803922 0" />
      <feBlend mode="normal" in2="effect0_dropShadow" result="effect1_dropShadow" />
      <feBlend mode="normal" in="SourceGraphic" in2="effect1_dropShadow" result="shape" />
    </filter>
    <path d="M0 0L43 0L43 43L0 43L0 0Z" id="path_1" />
    <path d="M0 0L9.88101 0L9.88101 9.88101L0 9.88101L0 0Z" id="path_2" />
    <rect width="33" height="43" id="artboard_1" />
    <clipPath id="clip_1">
      <use xlink:href="#artboard_1" clip-rule="evenodd" />
    </clipPath>
    <clipPath id="mask_1">
      <use xlink:href="#path_1" />
    </clipPath>
    <clipPath id="mask_2">
      <use xlink:href="#path_2" />
    </clipPath>
  </defs>
  <g id="Artboard" clip-path="url(#clip_1)">
    <use xlink:href="#artboard_1" stroke="none" fill="#FFFFFF" />
    <g id="location-pin" transform="translate(-5 0)">
      <path d="M0 0L43 0L43 43L0 43L0 0Z" id="Background" fill="none" fill-rule="evenodd" stroke="none" />
      <g clip-path="url(#mask_1)">
        <path d="M16.125 0C7.23475 0 0 7.28492 0 16.2415C0 28.9677 14.6093 42.1077 15.231 42.6596C15.4872 42.8871 15.8061 43 16.125 43C16.4439 43 16.7628 42.8871 17.019 42.6614C17.6407 42.1078 32.25 28.9677 32.25 16.2415C32.25 7.28492 25.0152 1.70867e-06 16.125 1.70867e-06L16.125 0ZM16.125 25.0833C11.1854 25.0833 7.16666 21.0646 7.16666 16.125C7.16666 11.1854 11.1854 7.16666 16.125 7.16666C21.0646 7.16666 25.0833 11.1854 25.0833 16.125C25.0833 21.0646 21.0646 25.0833 16.125 25.0833L16.125 25.0833Z" transform="translate(5.375 0)" id="Shape" fill="#000000" fill-rule="evenodd" stroke="none" />
      </g>
    </g>
    <g filter="url(#filter_1)">
      <g id="barbell" transform="translate(11.1189575 11.119019)">
        <path d="M0 0L9.88101 0L9.88101 9.88101L0 9.88101L0 0Z" id="Background" fill="none" fill-rule="evenodd" stroke="none" />
        <g clip-path="url(#mask_2)">
          <path d="M9.42652 2.7758C9.64618 2.55613 9.88099 2.37717 9.88099 1.98586C9.88099 1.76952 9.79672 1.56614 9.64377 1.41318L9.28123 1.05065L9.54591 0.785968C9.67043 0.661469 9.67043 0.459597 9.54591 0.335099C9.42141 0.2106 9.21954 0.2106 9.09504 0.335099L8.83036 0.599778L8.46783 0.237241C8.31485 0.0842678 8.11147 0 7.89513 0C7.5103 0 7.33528 0.224389 7.1052 0.454476L6.89336 0.242641C6.57761 -0.073149 6.06379 -0.0731689 5.74798 0.242661L5.60601 0.384655C5.29022 0.700425 5.29022 1.21424 5.60601 1.52999L6.75306 2.67704L2.67666 6.75346L1.52961 5.60641C1.21384 5.29062 0.700066 5.2906 0.384276 5.60641L0.242262 5.74842C-0.0735276 6.06419 -0.0735276 6.57801 0.242262 6.89376L0.454098 7.1056L0.236843 7.32285C-0.0789475 7.63862 -0.0789475 8.15244 0.236843 8.46819L0.599399 8.83074L0.332628 9.0975C0.131134 9.29895 0.276655 9.64174 0.558052 9.64174C0.63965 9.64174 0.721228 9.61059 0.783477 9.54834L1.05025 9.28161L1.41281 9.64417C1.72858 9.95994 2.24235 9.95996 2.55814 9.64417L2.7754 9.42692C2.98709 9.63861 3.16814 9.87559 3.55989 9.87559C3.93917 9.87559 4.12382 9.64752 4.27458 9.49674C4.59037 9.18097 4.59037 8.66715 4.27458 8.3514L3.12753 7.20435L7.20393 3.12795L8.35098 4.275C8.66677 4.59079 9.18057 4.59077 9.49632 4.27502C9.65242 4.11894 9.63638 4.13301 9.63837 4.13301C9.95414 3.8172 9.95412 3.3034 9.63835 2.98765L9.42652 2.7758ZM7.7733 0.688102C7.84063 0.620771 7.94957 0.620771 8.01694 0.688102C8.03694 0.708108 9.12896 1.80014 9.1929 1.86408C9.26023 1.93142 9.26023 2.04037 9.1929 2.1077L8.98306 2.31754L7.56348 0.897964L7.7733 0.688102ZM1.98546 9.24374C1.93945 9.24374 1.89621 9.22585 1.86367 9.19331C1.72212 9.05175 0.834008 8.16364 0.68769 8.01732C0.620399 7.95003 0.620359 7.84104 0.68769 7.77371L0.897552 7.56384L2.31713 8.98342C2.09996 9.20062 2.0777 9.24374 1.98546 9.24374L1.98546 9.24374ZM3.82372 9.04589L3.6817 9.1879C3.61453 9.25505 3.50527 9.25501 3.43808 9.1879L0.693094 6.44291C0.625943 6.37574 0.625943 6.26649 0.693094 6.19929C0.840109 6.05228 0.867528 6.00693 0.956897 6.00693C1.00101 6.00693 1.04513 6.02373 1.07871 6.05728L3.82369 8.80227C3.89087 8.86944 3.89087 8.97872 3.82372 9.04589L3.82372 9.04589ZM9.18744 3.68211L9.04545 3.8241C8.97826 3.89125 8.869 3.89121 8.80183 3.8241L6.05686 1.07911C5.98971 1.01194 5.98971 0.902686 6.05688 0.835475C6.20392 0.68844 6.23129 0.643127 6.32066 0.643127C6.36478 0.643127 6.4089 0.659925 6.44247 0.693481L9.18746 3.43847C9.25461 3.50566 9.25461 3.61494 9.18744 3.68211L9.18744 3.68211Z" transform="translate(3.0517578E-05 0)" id="Shape" fill="#000000" fill-rule="evenodd" stroke="none" />
        </g>
      </g>
    </g>
  </g>
</svg>